<svg viewBox="0 0 24 24" overflow="visible" xmlns="http://www.w3.org/2000/svg">
<g><path d="M 14.571 13.813 C 14.571 14.099 14.341 14.331 14.057 14.331 L 0.514 14.331 C 0.23 14.331 0 14.099 0 13.813 L 0 10.091 C 0 9.856 0.195 9.669 0.429 9.669 C 5.399 9.669 9.429 5.611 9.429 0.604 L 9.429 0.553 C 9.427 0.253 9.661 0 9.958 0 L 14.057 0 C 14.341 0 14.571 0.232 14.571 0.518 Z" fill="#D4AF37"/>
<path d="M 9.429 10.187 C 9.429 9.901 9.659 9.669 9.943 9.669 L 23.486 9.669 C 23.77 9.669 24 9.901 24 10.187 L 24 13.909 C 24 14.145 23.805 14.331 23.571 14.331 C 18.601 14.331 14.571 18.389 14.571 23.396 L 14.571 23.447 C 14.573 23.747 14.339 24 14.042 24 L 9.943 24 C 9.659 24 9.429 23.768 9.429 23.482 Z" fill="#D4AF37"/></g>
</svg>
